<svg height="512pt" viewBox="0 0 512 512" width="512pt" xmlns="http://www.w3.org/2000/svg"><path d="m497 0h-482c-8.285156 0-15 6.714844-15 15v482c0 8.285156 6.714844 15 15 15h60c8.285156 0 15-6.714844 15-15v-226h332v226c0 8.285156 6.714844 15 15 15h60c8.285156 0 15-6.714844 15-15 0-19.371094 0-462.496094 0-482 0-8.285156-6.714844-15-15-15zm-467 30h452v30h-452zm60 121h332v30h-332zm332-30h-332v-31h332zm-362 361h-30v-392h30zm30-241v-30h332v30zm362 241v-392h30v392zm0 0"/><path d="m286 302h-60c-24.8125 0-45 20.1875-45 45v120c0 24.8125 20.1875 45 45 45h60c24.8125 0 45-20.1875 45-45v-120c0-24.8125-20.1875-45-45-45zm15 165c0 8.269531-6.730469 15-15 15h-60c-8.269531 0-15-6.730469-15-15v-120c0-8.269531 6.730469-15 15-15h60c8.269531 0 15 6.730469 15 15zm0 0"/><path d="m266.605469 351.394531c-5.855469-5.859375-15.355469-5.859375-21.210938 0l-15 15c-5.859375 5.859375-5.859375 15.355469 0 21.210938 5.855469 5.859375 15.351563 5.859375 21.210938 0l4.394531-4.390625 4.394531 4.390625c5.855469 5.859375 15.355469 5.859375 21.210938 0 5.859375-5.855469 5.859375-15.351563 0-21.210938zm0 0"/><path d="m260.394531 426.394531-4.394531 4.390625-4.394531-4.390625c-5.855469-5.859375-15.355469-5.859375-21.210938 0-5.859375 5.859375-5.859375 15.355469 0 21.210938l15 15c2.925781 2.929687 6.765625 4.394531 10.605469 4.394531s7.679688-1.464844 10.605469-4.394531l15-15c5.859375-5.859375 5.859375-15.355469 0-21.210938-5.855469-5.859375-15.355469-5.859375-21.210938 0zm0 0"/></svg>