<svg height="512pt" viewBox="0 0 512 512" width="512pt" xmlns="http://www.w3.org/2000/svg"><path d="m503.464844 494.933594h-8.53125v-469.332032c0-14.140624-11.460938-25.601562-25.601563-25.601562h-426.664062c-14.140625 0-25.601563 11.460938-25.601563 25.601562v469.332032h-8.53125c-4.714844 0-8.535156 3.820312-8.535156 8.53125 0 4.714844 3.820312 8.535156 8.535156 8.535156h494.929688c4.714844 0 8.535156-3.820312 8.535156-8.535156 0-4.710938-3.820312-8.53125-8.535156-8.53125zm-281.597656-119.46875v-8.53125c0-4.714844 3.820312-8.535156 8.53125-8.535156v25.601562c-4.710938 0-8.53125-3.820312-8.53125-8.535156zm25.597656-17.066406h34.136718v25.601562h-34.136718zm51.203125 0c4.710937 0 8.53125 3.820312 8.53125 8.535156v8.53125c0 4.714844-3.820313 8.535156-8.53125 8.535156zm0-17.066407h-68.269531c-14.136719 0-25.597657 11.460938-25.597657 25.601563h-136.535156v-51.199219h375.46875v51.199219h-119.46875c0-14.140625-11.460937-25.601563-25.597656-25.601563zm145.066406-93.867187v51.203125h-375.46875v-51.203125zm-375.46875-17.066406v-51.199219h375.46875v51.199219zm375.46875-68.265626h-375.46875v-51.199218h375.46875zm-375.46875 221.867188h138.105469c3.601562 10.191406 13.21875 17.023438 24.027344 17.066406h68.269531c10.808593-.042968 20.425781-6.875 24.027343-17.066406h121.039063v51.199219h-375.46875zm375.46875-290.132812h-375.46875v-42.667969h375.46875zm-375.46875 401.066406v-42.667969h375.46875v42.667969zm392.535156 0v-443.734375c0-9.425781-7.640625-17.066407-17.066406-17.066407h-375.46875c-9.425781 0-17.066406 7.640626-17.066406 17.066407v443.734375h-17.066407v-469.332032c0-4.714843 3.820313-8.535156 8.535157-8.535156h426.664062c4.714844 0 8.535157 3.820313 8.535157 8.535156v469.332032zm0 0"/></svg>