<svg height="512pt" viewBox="0 -34 512 512" width="512pt" xmlns="http://www.w3.org/2000/svg"><path d="m492.726562 72.464844c6.027344-7.625 9.648438-17.238282 9.648438-27.691406 0-24.6875-20.085938-44.773438-44.773438-44.773438-24.691406 0-44.777343 20.085938-44.777343 44.773438 0 9.890624 3.242187 19.023437 8.695312 26.441406-11.183593 8.984375-18.820312 22.203125-20.453125 37.210937-30.097656-20.007812-84.644531-49.441406-145.066406-49.441406-60.414062 0-114.953125 29.425781-145.058594 49.433594-1.554687-14.316407-8.589844-27.003907-18.949218-35.941407 6.03125-7.628906 9.652343-17.246093 9.652343-27.703124 0-24.6875-20.085937-44.773438-44.777343-44.773438-24.6875 0-44.773438 20.085938-44.773438 44.773438 0 9.890624 3.230469 19.035156 8.683594 26.449218-12.65625 10.171875-20.777344 25.765625-20.777344 43.226563v314.902343c0 8.285157 6.714844 15 15 15l482-.015624c8.285156 0 15-6.714844 15-15v-314.886719c0-16.761719-7.480469-31.804688-19.273438-41.984375zm-381.457031 137.757812h49.863281v135.839844h-49.863281zm79.863281 0h49.867188v135.839844h-49.867188zm79.867188 0h49.867188v135.839844h-49.867188zm79.867188 0h49.863281v135.839844h-49.863281zm49.863281-30h-49.863281v-66.144531c23.523437 11.757813 41.464843 24.570313 49.863281 30.992187zm-79.863281 0h-49.867188v-90.527344c17.449219 1.625 34.3125 5.914063 49.867188 11.492188zm-79.867188 0h-49.867188v-79.082031c15.539063-5.558594 32.394532-9.832031 49.867188-11.449219zm-79.867188 0h-49.863281v-35.164062c8.394531-6.441406 26.320313-19.277344 49.863281-31.042969zm-49.863281 195.839844h49.863281v38.289062h-49.863281zm79.863281 0h49.867188v38.289062h-49.867188zm79.867188 0h49.867188v38.289062h-49.867188zm79.867188 0h49.863281v38.289062h-49.863281zm106.734374-346.0625c8.144532 0 14.773438 6.628906 14.773438 14.773438 0 8.144531-6.628906 14.773437-14.773438 14.773437-8.148437 0-14.777343-6.628906-14.777343-14.773437 0-8.144532 6.628906-14.773438 14.777343-14.773438zm-400.734374 0c8.148437 0 14.777343 6.628906 14.777343 14.773438 0 8.144531-6.628906 14.773437-14.777343 14.773437-8.144532 0-14.773438-6.628906-14.773438-14.773437 0-8.144532 6.628906-14.773438 14.773438-14.773438zm-26.867188 84.449219c0-14.039063 11.425781-25.464844 25.464844-25.464844h.335937c14.042969 0 25.464844 11.425781 25.464844 25.464844v299.902343h-51.265625zm452 299.886719h-51.269531v-299.886719c0-14.039063 11.425781-25.464844 25.464843-25.464844h.339844c14.039063 0 25.464844 11.425781 25.464844 25.464844zm0 0"/></svg>