<?xml version="1.0" encoding="iso-8859-1"?>
<!-- Generator: Adobe Illustrator 19.0.0, SVG Export Plug-In . SVG Version: 6.00 Build 0)  -->
<svg version="1.1" id="Capa_1" xmlns="http://www.w3.org/2000/svg" xmlns:xlink="http://www.w3.org/1999/xlink" x="0px" y="0px"
	 viewBox="0 0 480.272 480.272" style="enable-background:new 0 0 480.272 480.272;" xml:space="preserve">
<g>
	<g>
		<path d="M236.136,208.272c-4.418,0-8,3.582-8,8v128c0,4.418,3.582,8,8,8s8-3.582,8-8v-128
			C244.136,211.853,240.554,208.272,236.136,208.272z"/>
	</g>
</g>
<g>
	<g>
		<path d="M204,342.8l-24-128c-0.628-4.373-4.682-7.41-9.055-6.782c-4.373,0.628-7.41,4.682-6.782,9.055
			c0.032,0.225,0.074,0.449,0.126,0.671l24,128c0.707,3.779,4.003,6.521,7.848,6.528c4.418,0,8-3.581,8.001-7.999
			C204.137,343.778,204.091,343.285,204,342.8z"/>
	</g>
</g>
<g>
	<g>
		<path d="M302.006,208.135c-4.304-0.998-8.602,1.682-9.601,5.986c-0.051,0.222-0.093,0.445-0.126,0.671l-24,128
			c-0.819,4.341,2.035,8.524,6.376,9.344c4.343,0.812,8.522-2.05,9.335-6.393c0-0.003,0.001-0.005,0.001-0.007l24-128
			C308.99,213.432,306.31,209.133,302.006,208.135z"/>
	</g>
</g>
<g>
	<g>
		<path d="M388.136,176.272h-3.616c15.599-80.236-36.8-157.925-117.036-173.524c-80.236-15.599-157.925,36.8-173.524,117.036
			c-3.627,18.655-3.627,37.833,0,56.488h-1.824c-4.418,0-8,3.582-8,8s3.582,8,8,8h5.84c1.903,6.052,4.185,11.979,6.832,17.744
			l59.328,175.568v46.688c0,13.255,10.745,24,24,24h17.136c4.339,17.046,21.674,27.347,38.719,23.009
			c11.304-2.877,20.131-11.704,23.009-23.009h17.136c13.255,0,24-10.745,24-24v-46.56l62.992-170.488
			c3.728-7.381,6.84-15.058,9.304-22.952h7.704c4.418,0,8-3.582,8-8S392.554,176.272,388.136,176.272z M236.136,464.272
			c-5.713-0.003-10.991-3.052-13.848-8h27.696C247.127,461.219,241.849,464.269,236.136,464.272z M292.136,432.272
			c0,4.418-3.582,8-8,8h-96c-4.418,0-8-3.582-8-8v-8h112V432.272z M292.136,408.272h-112v-16h112V408.272z M356.664,208.36
			c-0.144,0.286-0.272,0.58-0.384,0.88l-61.744,167.032H177.88l-58.048-171.784c-0.096-0.272-0.2-0.536-0.32-0.8
			c-1.744-3.752-3.2-7.568-4.6-11.416h248.704C361.654,197.781,359.332,203.155,356.664,208.36z M368.232,176.272H110.32
			c-7.497-34.068-1.124-69.719,17.712-99.08V77.16c39.279-61.415,120.907-79.36,182.322-40.082
			C356.849,66.814,379.935,122.337,368.232,176.272z"/>
	</g>
</g>
<g>
	<g>
		<path d="M198.888,49.792c-8.314,3.675-16.148,8.353-23.328,13.928l9.792,12.648c6.161-4.773,12.876-8.784,20-11.944
			L198.888,49.792z"/>
	</g>
</g>
<g>
	<g>
		<path d="M159.52,78.896c-17.661,20.366-27.384,46.419-27.384,73.376h16c-0.005-23.104,8.326-45.434,23.464-62.888L159.52,78.896z"
			/>
	</g>
</g>
<g>
</g>
<g>
</g>
<g>
</g>
<g>
</g>
<g>
</g>
<g>
</g>
<g>
</g>
<g>
</g>
<g>
</g>
<g>
</g>
<g>
</g>
<g>
</g>
<g>
</g>
<g>
</g>
<g>
</g>
</svg>
